<svg xmlns="http://www.w3.org/2000/svg" xmlns:xlink="http://www.w3.org/1999/xlink" width="263" height="118" viewBox="0 0 263 118"><defs><polygon id="a" points="0 0 271 0 271 130.538 0 130.538"/></defs><g fill="none" fill-rule="evenodd"><g transform="translate(-5 .462)"><path fill="#E60000" fill-rule="nonzero" d="M110.522961,1.32370141 L81.3954225,81.8366563 L101.920428,81.8366563 L106.738885,67.6125915 L136.785532,67.6125915 L141.603989,81.8366563 L162.367169,81.8366563 L133.236577,1.32370141 L110.522961,1.32370141 Z M112.232169,3.76041127 L131.525079,3.76041127 L158.890735,79.4007099 L143.351366,79.4007099 L139.093231,66.8316535 L138.53291,65.1766451 L104.991507,65.1766451 L104.431186,66.8316535 L100.173051,79.4007099 L84.8695662,79.4007099 L112.232169,3.76041127 Z M119.445349,22.2242901 L109.584003,51.7014563 L108.51069,54.9129972 L135.141975,54.9129972 L134.051104,51.6922958 L124.066854,22.2181831 L121.743887,15.3569211 L119.445349,22.2242901 Z M121.756101,22.9998845 L131.742642,52.4732338 L111.894755,52.4732338 L121.756101,22.9998845 Z M167.705487,81.8366563 L187.320544,81.8366563 L187.320544,33.2818535 L167.705487,33.2818535 L167.705487,81.8366563 Z M170.144487,35.7178 L184.881544,35.7178 L184.881544,79.4007099 L170.144487,79.4007099 L170.144487,35.7178 Z"/><mask id="b" fill="#fff"><use xlink:href="#a"/></mask><g mask="url(#b)"><path fill="#009641" fill-rule="nonzero" d="M229.971363,65.7216986 L229.971363,48.0601324 L256.233172,48.0601324 L256.233172,32.9207746 L229.971363,32.9207746 L229.971363,16.633293 L259.671437,16.633293 L259.671437,0.923690141 L210.347146,0.923690141 L210.347146,81.4396986 L259.671437,81.4396986 L259.671437,65.7216986 L229.971363,65.7216986 Z M140.965803,16.633293 L203.240839,16.633293 L203.240839,0.926743662 L140.965803,0.926743662 L140.965803,16.633293 Z M79.8327831,54.2534366 L79.8327831,36.0246789 L37.1613521,36.0246789 L37.1613521,50.4693606 L62.0513662,50.4693606 C59.0726563,59.5314479 52.309107,64.6964789 42.5584507,64.6964789 C28.4481296,64.6964789 19.9578141,55.9802028 19.9578141,41.0637521 C19.9578141,27.0755718 28.3374394,18.1302817 40.9538254,18.1302817 C48.2929634,18.1302817 53.7946451,20.9952479 56.7733549,26.3839493 L78.4609887,26.3839493 C74.2120141,9.87279718 60.2207803,0 40.9538254,0 C16.8661239,0 0,16.9791042 0,41.0637521 C0,65.1522169 16.9791042,82.0091803 41.0645155,82.0091803 C62.2841972,82.0091803 75.7059493,68.1316901 79.8327831,54.2534366" transform="translate(5.41 .397)"/></g></g><g fill="#E60000" fill-rule="nonzero" transform="translate(63.937 95.104)"><polygon points="0 17.896 0 0 2.429 0 11.829 14.05 11.829 0 14.099 0 14.099 17.896 11.67 17.896 2.271 3.833 2.271 17.896"/><polygon points="16.727 17.896 16.727 0 29.667 0 29.667 2.112 19.096 2.112 19.096 7.593 28.996 7.593 28.996 9.692 19.096 9.692 19.096 15.784 30.082 15.784 30.082 17.896"/><path d="M43.696582 0 46.0647461 0 46.0647461 10.3393555C46.0647461 12.1378581 45.8612956 13.5660807 45.4543945 14.6240234 45.0474935 15.6819661 44.3130371 16.5425618 43.2510254 17.2058105 42.1890137 17.8690592 40.7953776 18.2006836 39.0701172 18.2006836 37.3936849 18.2006836 36.0224284 17.9117839 34.9563477 17.3339844 33.8902669 16.7561849 33.129362 15.9200033 32.6736328 14.8254395 32.2179036 13.7308757 31.9900391 12.2355143 31.9900391 10.3393555L31.9900391 0 34.3582031 0 34.3582031 10.3271484C34.3582031 11.8815104 34.502653 13.0269368 34.7915527 13.7634277 35.0804525 14.4999186 35.5768717 15.0675456 36.2808105 15.4663086 36.9847493 15.8650716 37.8453451 16.0644531 38.8625977 16.0644531 40.6041341 16.0644531 41.8451823 15.6697591 42.5857422 14.8803711 43.3263021 14.0909831 43.696582 12.5732422 43.696582 10.3271484L43.696582 0ZM48.6442383 17.8955078 48.6442383 0 56.5788086 0C58.1738607 0 59.3864258.160725911 60.2165039.482177734 61.046582.803629557 61.7098307 1.37125651 62.20625 2.18505859 62.7026693 2.99886068 62.9508789 3.89811198 62.9508789 4.8828125 62.9508789 6.15234375 62.5399089 7.22249349 61.7179687 8.09326172 60.8960286 8.96402995 59.6264974 9.51741536 57.909375 9.75341797 58.5360026 10.0545247 59.0120768 10.3515625 59.3375977 10.6445312 60.0293294 11.2792969 60.6844401 12.0727539 61.3029297 13.0249023L64.4157227 17.8955078 61.437207 17.8955078 59.069043 14.1723633C58.3773112 13.0981445 57.8076497 12.2762044 57.3600586 11.706543 56.9124674 11.1368815 56.5116699 10.7381185 56.157666 10.5102539 55.8036621 10.2823893 55.4435547 10.1236979 55.0773437 10.0341797 54.8087891 9.97721354 54.3693359 9.94873047 53.7589844 9.94873047L51.0124023 9.94873047 51.0124023 17.8955078 48.6442383 17.8955078ZM51.0124023 7.89794922 56.1027344 7.89794922C57.1850911 7.89794922 58.0314453 7.78605143 58.6417969 7.56225586 59.2521484 7.33846029 59.7160156 6.98038737 60.0333984 6.48803711 60.3507812 5.99568685 60.5094727 5.46061198 60.5094727 4.8828125 60.5094727 4.03645833 60.2022624 3.34065755 59.5878418 2.79541016 58.9734212 2.25016276 58.0029622 1.97753906 56.6764648 1.97753906L51.0124023 1.97753906 51.0124023 7.89794922Z"/><path d="M63.2964844,17.8955078 L70.169043,0 L72.7203125,0 L80.0445312,17.8955078 L77.3467773,17.8955078 L75.259375,12.4755859 L67.7764648,12.4755859 L65.8111328,17.8955078 L63.2964844,17.8955078 Z M68.4600586,10.546875 L74.5269531,10.546875 L72.6592773,5.59082031 C72.0896159,4.08528646 71.6664388,2.84830729 71.3897461,1.87988281 C71.1618815,3.02734375 70.8404297,4.16666667 70.4253906,5.29785156 L68.4600586,10.546875 Z"/><polygon points="80.439 17.896 80.439 0 82.807 0 82.807 15.784 91.621 15.784 91.621 17.896"/><polygon points="98.061 17.896 98.061 0 100.429 0 100.429 17.896"/><polygon points="103.18 17.896 103.18 0 105.609 0 115.008 14.05 115.008 0 117.279 0 117.279 17.896 114.85 17.896 105.45 3.833 105.45 17.896"/><path d="M119.858496,17.8955078 L119.858496,0 L126.023047,0 C127.414648,0 128.47666,0.0854492188 129.209082,0.256347656 C130.234473,0.49235026 131.10931,0.919596354 131.833594,1.53808594 C132.777604,2.33561198 133.483577,3.35489909 133.951514,4.59594727 C134.41945,5.83699544 134.653418,7.25504557 134.653418,8.85009766 C134.653418,10.2091471 134.494727,11.4135742 134.177344,12.4633789 C133.859961,13.5131836 133.45306,14.3819173 132.956641,15.0695801 C132.460221,15.7572428 131.917008,16.2984212 131.327002,16.6931152 C130.736995,17.0878092 130.024919,17.3868815 129.190771,17.590332 C128.356624,17.7937826 127.398372,17.8955078 126.316016,17.8955078 L119.858496,17.8955078 Z M122.22666,15.7836914 L126.047461,15.7836914 C127.227474,15.7836914 128.153174,15.6738281 128.824561,15.4541016 C129.495947,15.234375 130.031022,14.9251302 130.429785,14.5263672 C130.991309,13.9648438 131.428727,13.2100423 131.742041,12.2619629 C132.055355,11.3138835 132.212012,10.164388 132.212012,8.81347656 C132.212012,6.94173177 131.904801,5.50333659 131.290381,4.49829102 C130.67596,3.49324544 129.929297,2.81982422 129.050391,2.47802734 C128.415625,2.23388672 127.394303,2.11181641 125.986426,2.11181641 L122.22666,2.11181641 L122.22666,15.7836914 Z"/><polygon points="136.562 17.896 136.562 0 149.501 0 149.501 2.112 138.93 2.112 138.93 7.593 148.83 7.593 148.83 9.692 138.93 9.692 138.93 15.784 149.916 15.784 149.916 17.896"/><path d="M149.968652,17.8955078 L156.890039,8.56933594 L150.786523,0 L153.606348,0 L156.853418,4.58984375 C157.528874,5.54199219 158.009017,6.27441406 158.293848,6.78710938 C158.692611,6.13606771 159.164616,5.45654297 159.709863,4.74853516 L163.310937,0 L165.886621,0 L159.6,8.43505859 L166.374902,17.8955078 L163.445215,17.8955078 L158.94082,11.5112305 C158.688542,11.1450195 158.428125,10.7462565 158.15957,10.3149414 C157.760807,10.9659831 157.475977,11.4135742 157.305078,11.6577148 L152.812891,17.8955078 L149.968652,17.8955078 Z"/><polygon points="167.111 17.896 167.111 0 180.051 0 180.051 2.112 169.479 2.112 169.479 7.593 179.379 7.593 179.379 9.692 169.479 9.692 169.479 15.784 180.466 15.784 180.466 17.896"/><path d="M182.37373,17.8955078 L182.37373,0 L190.308301,0 C191.903353,0 193.115918,0.160725911 193.945996,0.482177734 C194.776074,0.803629557 195.439323,1.37125651 195.935742,2.18505859 C196.432161,2.99886068 196.680371,3.89811198 196.680371,4.8828125 C196.680371,6.15234375 196.269401,7.22249349 195.447461,8.09326172 C194.625521,8.96402995 193.35599,9.51741536 191.638867,9.75341797 C192.265495,10.0545247 192.741569,10.3515625 193.06709,10.6445312 C193.758822,11.2792969 194.413932,12.0727539 195.032422,13.0249023 L198.145215,17.8955078 L195.166699,17.8955078 L192.798535,14.1723633 C192.106803,13.0981445 191.537142,12.2762044 191.089551,11.706543 C190.64196,11.1368815 190.241162,10.7381185 189.887158,10.5102539 C189.533154,10.2823893 189.173047,10.1236979 188.806836,10.0341797 C188.538281,9.97721354 188.098828,9.94873047 187.488477,9.94873047 L184.741895,9.94873047 L184.741895,17.8955078 L182.37373,17.8955078 Z M184.741895,7.89794922 L189.832227,7.89794922 C190.914583,7.89794922 191.760937,7.78605143 192.371289,7.56225586 C192.981641,7.33846029 193.445508,6.98038737 193.762891,6.48803711 C194.080273,5.99568685 194.238965,5.46061198 194.238965,4.8828125 C194.238965,4.03645833 193.931755,3.34065755 193.317334,2.79541016 C192.702913,2.25016276 191.732454,1.97753906 190.405957,1.97753906 L184.741895,1.97753906 L184.741895,7.89794922 Z"/></g></g></svg>